<svg xmlns="http://www.w3.org/2000/svg" width="38" height="31.117" viewBox="0 0 38 31.117"><g transform="translate(1.5 1.617)"><path d="M25.455,9.333V6.222A6.294,6.294,0,0,0,19.091,0H6.364A6.294,6.294,0,0,0,0,6.222V9.333" transform="translate(0 18.667)" fill="none" stroke="#140f26" stroke-linecap="round" stroke-linejoin="round" stroke-miterlimit="10" stroke-width="3"/><ellipse cx="6.364" cy="6.222" rx="6.364" ry="6.222" transform="translate(6.364)" fill="none" stroke="#140f26" stroke-linecap="round" stroke-linejoin="round" stroke-miterlimit="10" stroke-width="3"/><path d="M4.773,9.131V6.02A6.249,6.249,0,0,0,0,0" transform="translate(30.227 18.869)" fill="none" stroke="#140f26" stroke-linecap="round" stroke-linejoin="round" stroke-miterlimit="10" stroke-width="3"/><path d="M0,0A6.249,6.249,0,0,1,4.785,6.028,6.249,6.249,0,0,1,0,12.056" transform="translate(23.864 0.202)" fill="none" stroke="#140f26" stroke-linecap="round" stroke-linejoin="round" stroke-miterlimit="10" stroke-width="3"/></g></svg>